<!DOCTYPE svg PUBLIC "-//W3C//DTD SVG 1.1//EN" "http://www.w3.org/Graphics/SVG/1.1/DTD/svg11.dtd">

<!-- Uploaded to: SVG Repo, www.svgrepo.com, Transformed by: SVG Repo Mixer Tools -->
<svg width="160px" height="160px" viewBox="-7.2 -7.2 38.40 38.40" fill="none" xmlns="http://www.w3.org/2000/svg" stroke="#C8CC92" stroke-width="0.00024000000000000003" transform="matrix(1, 0, 0, 1, 0, 0)rotate(0)">

<g id="SVGRepo_bgCarrier" stroke-width="0"/>

<g id="SVGRepo_tracerCarrier" stroke-linecap="round" stroke-linejoin="round"/>

<g id="SVGRepo_iconCarrier"> <g id="style=stroke"> <g id="add"> <path id="vector (Stroke)" fill-rule="evenodd" clip-rule="evenodd" d="M11.9988 5.09338C12.413 5.09338 12.7488 5.42916 12.7488 5.84338L12.7487 18.1595C12.7487 18.5737 12.4129 18.9095 11.9987 18.9095C11.5845 18.9095 11.2487 18.5737 11.2487 18.1595L11.2488 5.84337C11.2488 5.42916 11.5846 5.09337 11.9988 5.09338Z" fill="#C8CC92"/> <path id="vector (Stroke)_2" fill-rule="evenodd" clip-rule="evenodd" d="M18.9069 12.0015C18.9069 12.4157 18.5711 12.7515 18.1569 12.7515L5.84071 12.7514C5.4265 12.7514 5.09072 12.4156 5.09072 12.0014C5.09072 11.5872 5.42651 11.2514 5.84072 11.2514L18.1569 11.2515C18.5711 11.2515 18.9069 11.5873 18.9069 12.0015Z" fill="#C8CC92"/> </g> </g> </g>

</svg>